<svg width="900" height="900" viewBox="0 0 900 900" fill="none" xmlns="http://www.w3.org/2000/svg">
<rect x="455" y="121.921" width="66.8412" height="94.23" fill="#9CD7E4"/>
<rect x="650.565" y="403.117" width="66.8412" height="94.23" fill="#9CD7E4"/>
<path d="M287.033 215.634H787.018L612.961 684.366H112.977L287.033 215.634Z" fill="#0B4957"/>
<rect width="100" height="200" transform="matrix(1 0 -0.348081 0.937464 187.033 215.634)" fill="#0B5666"/>
<rect width="100" height="200" transform="matrix(1 0 -0.348081 0.937464 82.5966 496.873)" fill="#4994A5"/>
<rect width="100" height="200" transform="matrix(1 0 -0.348081 0.937464 487.021 215.634)" fill="#106E83"/>
<rect width="100" height="200" transform="matrix(1 0 -0.348081 0.937464 682.594 496.873)" fill="#6BB7C8"/>
<rect width="100" height="200" transform="matrix(1 0 -0.348081 0.937464 787.02 215.634)" fill="#48AEC5"/>
<rect width="200" height="100" transform="matrix(1 0 -0.348081 0.937464 321.841 121.887)" fill="#012E38"/>
<rect width="200" height="100" transform="matrix(1 0 -0.348081 0.937464 217.405 403.127)" fill="#21849A"/>
<rect width="200" height="100" transform="matrix(1 0 -0.348081 0.937464 517.403 403.127)" fill="#439EB3"/>
<rect width="200" height="100" transform="matrix(1 0 -0.348081 0.937464 412.978 684.366)" fill="#9CD7E4"/>
</svg>
